<svg width="1600" height="2200" viewBox="0 0 1600 2200" fill="none" xmlns="http://www.w3.org/2000/svg">
  <rect width="1600" height="2200" fill="#0A1424"/>
  <rect width="1600" height="2200" fill="url(#paint0_linear)"/>
  <circle cx="1250" cy="340" r="230" fill="#72D1FF" fill-opacity="0.28"/>
  <circle cx="1360" cy="500" r="320" fill="#F4C46B" fill-opacity="0.2"/>
  <rect x="0" y="1120" width="1600" height="1080" fill="url(#paint1_linear)"/>
  <rect x="900" y="180" width="520" height="720" rx="34" fill="#E6EDF6"/>
  <rect x="948" y="248" width="132" height="610" rx="18" fill="#CBD5E1"/>
  <rect x="1112" y="248" width="132" height="610" rx="18" fill="#CBD5E1"/>
  <rect x="1276" y="248" width="96" height="610" rx="18" fill="#D5DEE9"/>
  <rect x="700" y="240" width="220" height="860" rx="26" fill="#DCE5EF" fill-opacity="0.95"/>
  <rect x="740" y="320" width="140" height="720" rx="14" fill="#B5C3D4"/>
  <rect x="480" y="320" width="220" height="760" rx="22" fill="#F2F6FB" fill-opacity="0.94"/>
  <rect x="520" y="390" width="140" height="620" rx="14" fill="#C7D3E0"/>
  <rect x="1110" y="1180" width="350" height="560" rx="28" fill="#F3F7FB"/>
  <path d="M1110 1290H1460V1510H1110V1290Z" fill="#C5D0DB"/>
  <path d="M1080 1330H1160V1470H1080V1330Z" fill="#EFF4F9"/>
  <path d="M1430 1330H1510V1470H1430V1330Z" fill="#EFF4F9"/>
  <rect x="1150" y="1290" width="60" height="270" rx="22" fill="#6C7782"/>
  <rect x="1370" y="1290" width="60" height="270" rx="22" fill="#6C7782"/>
  <path d="M1040 1410C1040 1354.77 1084.77 1310 1140 1310H1430C1485.23 1310 1530 1354.77 1530 1410V1536H1040V1410Z" fill="#FFFFFF" fill-opacity="0.86"/>
  <circle cx="1172" cy="1568" r="46" fill="#24384C"/>
  <circle cx="1388" cy="1568" r="46" fill="#24384C"/>
  <rect x="1044" y="1540" width="486" height="44" fill="#1A2C40"/>
  <path d="M310 1570L830 1380L1120 1490L660 1720L310 1570Z" fill="#D7B697"/>
  <path d="M330 1450C330 1417.97 355.97 1392 388 1392H804C836.03 1392 862 1417.97 862 1450V1548H330V1450Z" fill="#E9CFB7"/>
  <path d="M852 1426C935.44 1452.65 1007.65 1508.38 1058 1596L874 1672L776 1540L852 1426Z" fill="#CBA381"/>
  <path d="M370 1532H790C810.987 1532 828 1549.01 828 1570V1658C828 1678.99 810.987 1696 790 1696H370C349.013 1696 332 1678.99 332 1658V1570C332 1549.01 349.013 1532 370 1532Z" fill="#D1AD8C"/>
  <rect x="390" y="1678" width="26" height="120" rx="13" transform="rotate(20 390 1678)" fill="#A8744B"/>
  <rect x="766" y="1668" width="26" height="120" rx="13" transform="rotate(-18 766 1668)" fill="#A8744B"/>
  <path d="M195 1194C195 1128.28 248.282 1075 314 1075H347C412.718 1075 466 1128.28 466 1194V1234H195V1194Z" fill="#E0B492"/>
  <circle cx="332" cy="1030" r="96" fill="#E0B492"/>
  <path d="M260 992C260 951.131 293.131 918 334 918C374.869 918 408 951.131 408 992V1044H260V992Z" fill="#123560"/>
  <path d="M224 1230H474L532 1600H188L224 1230Z" fill="#FFFFFF"/>
  <path d="M188 1584H532L564 1990H150L188 1584Z" fill="#163C6D"/>
  <rect x="180" y="1970" width="92" height="160" rx="24" fill="#0D1C33"/>
  <rect x="390" y="1970" width="92" height="160" rx="24" fill="#0D1C33"/>
  <path d="M1198 1144C1198 1078.28 1251.28 1025 1317 1025H1350C1415.72 1025 1469 1078.28 1469 1144V1184H1198V1144Z" fill="#E7B795"/>
  <circle cx="1336" cy="980" r="98" fill="#E7B795"/>
  <path d="M1256 952C1256 911.131 1289.13 878 1330 878C1370.87 878 1404 911.131 1404 952V1006H1256V952Z" fill="#744E3D"/>
  <path d="M1180 1180H1470L1422 1580H1224L1180 1180Z" fill="#FFFFFF"/>
  <path d="M1210 1564H1446L1496 2010H1164L1210 1564Z" fill="#163C6D"/>
  <rect x="1180" y="1990" width="92" height="160" rx="24" fill="#0D1C33"/>
  <rect x="1378" y="1990" width="92" height="160" rx="24" fill="#0D1C33"/>
  <path d="M532 1452L654 1466L676 1542L542 1566L532 1452Z" fill="#E0B492"/>
  <path d="M1124 1474L988 1518L960 1590L1090 1620L1124 1474Z" fill="#E7B795"/>
  <rect y="1860" width="1600" height="340" fill="url(#paint2_linear)"/>
  <defs>
    <linearGradient id="paint0_linear" x1="800" y1="0" x2="800" y2="2200" gradientUnits="userSpaceOnUse">
      <stop stop-color="#15263E"/>
      <stop offset="0.45" stop-color="#213654"/>
      <stop offset="1" stop-color="#0B1424"/>
    </linearGradient>
    <linearGradient id="paint1_linear" x1="800" y1="1120" x2="800" y2="2200" gradientUnits="userSpaceOnUse">
      <stop stop-color="#E7D8C7"/>
      <stop offset="1" stop-color="#9E8A7D"/>
    </linearGradient>
    <linearGradient id="paint2_linear" x1="800" y1="1860" x2="800" y2="2200" gradientUnits="userSpaceOnUse">
      <stop stop-color="#6C5B50" stop-opacity="0"/>
      <stop offset="1" stop-color="#604D43"/>
    </linearGradient>
  </defs>
</svg>
